<?xml version="1.0" encoding="UTF-8" standalone="no"?>
<!-- Created with Inkscape (http://www.inkscape.org/) -->

<svg
   xmlns:dc="http://purl.org/dc/elements/1.1/"
   xmlns:cc="http://creativecommons.org/ns#"
   xmlns:rdf="http://www.w3.org/1999/02/22-rdf-syntax-ns#"
   xmlns:svg="http://www.w3.org/2000/svg"
   xmlns="http://www.w3.org/2000/svg"
   xmlns:sodipodi="http://sodipodi.sourceforge.net/DTD/sodipodi-0.dtd"
   xmlns:inkscape="http://www.inkscape.org/namespaces/inkscape"
   id="svg2"
   version="1.1"
   inkscape:version="0.91 r13725"
   width="386.90283"
   height="117.28832"
   viewBox="0 0 386.90283 117.28832"
   sodipodi:docname="graphxd_text_banner2.svg">
  <metadata
     id="metadata8">
    <rdf:RDF>
      <cc:Work
         rdf:about="">
        <dc:format>image/svg+xml</dc:format>
        <dc:type
           rdf:resource="http://purl.org/dc/dcmitype/StillImage" />
        <dc:title></dc:title>
      </cc:Work>
    </rdf:RDF>
  </metadata>
  <defs
     id="defs6" />
  <sodipodi:namedview
     pagecolor="#ffffff"
     bordercolor="#666666"
     borderopacity="1"
     objecttolerance="20"
     gridtolerance="20"
     guidetolerance="20"
     inkscape:pageopacity="0"
     inkscape:pageshadow="2"
     inkscape:window-width="1920"
     inkscape:window-height="1080"
     id="namedview4"
     showgrid="false"
     inkscape:snap-path-clip="true"
     inkscape:snap-path-mask="true"
     fit-margin-top="0"
     fit-margin-left="0"
     fit-margin-right="0"
     fit-margin-bottom="0"
     inkscape:zoom="1.7565218"
     inkscape:cx="207.92427"
     inkscape:cy="127.78933"
     inkscape:window-x="0"
     inkscape:window-y="0"
     inkscape:window-maximized="0"
     inkscape:current-layer="svg2">
    <sodipodi:guide
       position="139.15367,15.081262"
       orientation="0,72.259664"
       id="guide4419" />
    <sodipodi:guide
       position="175.2835,58.155272"
       orientation="86.148013,0"
       id="guide4421" />
    <sodipodi:guide
       position="125.43444,72.424833"
       orientation="58.170034,0"
       id="guide4459" />
    <sodipodi:guide
       position="154.51946,43.339811"
       orientation="0,-58.170035"
       id="guide4461" />
    <sodipodi:guide
       position="214.78498,-21.598158"
       orientation="0,-37.43816"
       id="guide4486" />
    <sodipodi:guide
       position="196.0659,-2.8790775"
       orientation="37.438153,0"
       id="guide4488" />
  </sodipodi:namedview>
  <g
     id="g4222"
     transform="scale(0.90845277,0.90845277)">
    <path
       style="opacity:1;fill:none;fill-opacity:1;stroke:#7e95b3;stroke-width:5.06985569;stroke-linecap:round;stroke-linejoin:miter;stroke-miterlimit:0;stroke-dasharray:none;stroke-dashoffset:0;stroke-opacity:1"
       d="M 134.72902,80.235419 A 18.337683,18.337683 0 0 1 116.39134,98.573101 18.337683,18.337683 0 0 1 98.053653,80.235419 18.337683,18.337683 0 0 1 116.39134,61.897736 18.337683,18.337683 0 0 1 134.72902,80.235419 Z"
       id="path4144-3-5"
       inkscape:connector-curvature="0" />
    <path
       style="opacity:1;fill:none;fill-opacity:1;stroke:#7e95b3;stroke-width:4;stroke-linecap:round;stroke-linejoin:miter;stroke-miterlimit:0;stroke-dasharray:none;stroke-dashoffset:0;stroke-opacity:1"
       d="m 147.36668,116.91484 a 10.192945,10.192945 0 0 1 -10.19294,10.19294 10.192945,10.192945 0 0 1 -10.19295,-10.19294 10.192945,10.192945 0 0 1 10.19295,-10.19295 10.192945,10.192945 0 0 1 10.19294,10.19295 z"
       id="path4144-3-3"
       inkscape:connector-curvature="0" />
    <path
       style="opacity:1;fill:none;fill-opacity:1;stroke:#7e95b3;stroke-width:4;stroke-linecap:round;stroke-linejoin:miter;stroke-miterlimit:0;stroke-dasharray:none;stroke-dashoffset:0;stroke-opacity:1"
       d="M 168.44033,80.235419 A 10.192945,10.192945 0 0 1 158.24739,90.428363 10.192945,10.192945 0 0 1 148.05444,80.235419 10.192945,10.192945 0 0 1 158.24739,70.042474 10.192945,10.192945 0 0 1 168.44033,80.235419 Z"
       id="path4144-3-3-5"
       inkscape:connector-curvature="0" />
    <path
       sodipodi:nodetypes="cc"
       inkscape:connector-curvature="0"
       id="path4250"
       d="m 87.782396,64.177829 14.667974,8.330737"
       style="fill:none;fill-rule:evenodd;stroke:#7e95b3;stroke-width:5;stroke-linecap:butt;stroke-linejoin:miter;stroke-miterlimit:4;stroke-dasharray:none;stroke-opacity:1" />
    <path
       inkscape:connector-curvature="0"
       id="path4250-9"
       d="m 135.62029,80.601513 13.23077,-0.0828"
       style="fill:none;fill-rule:evenodd;stroke:#7e95b3;stroke-width:5;stroke-linecap:butt;stroke-linejoin:miter;stroke-miterlimit:4;stroke-dasharray:none;stroke-opacity:1" />
    <path
       sodipodi:nodetypes="cc"
       inkscape:transform-center-y="-1.7359104"
       inkscape:transform-center-x="1.2873767"
       inkscape:connector-curvature="0"
       id="path4250-9-1"
       d="m 125.22555,95.463752 7.21866,12.652858"
       style="fill:none;fill-rule:evenodd;stroke:#7e95b3;stroke-width:5;stroke-linecap:butt;stroke-linejoin:miter;stroke-miterlimit:4;stroke-dasharray:none;stroke-opacity:1" />
    <path
       style="opacity:1;fill:none;fill-opacity:1;stroke:#2c4770;stroke-width:6.99399996;stroke-linecap:round;stroke-linejoin:miter;stroke-miterlimit:0;stroke-dasharray:none;stroke-dashoffset:0;stroke-opacity:1"
       d="M 90.666293,51.976866 A 24.124018,24.124018 0 0 1 66.542275,76.100884 24.124018,24.124018 0 0 1 42.418258,51.976866 24.124018,24.124018 0 0 1 66.542275,27.85285 24.124018,24.124018 0 0 1 90.666293,51.976866 Z"
       id="path4144"
       inkscape:connector-curvature="0" />
    <path
       style="opacity:1;fill:none;fill-opacity:1;stroke:#2c4770;stroke-width:5;stroke-linecap:round;stroke-linejoin:miter;stroke-miterlimit:0;stroke-dasharray:none;stroke-dashoffset:0;stroke-opacity:1"
       d="M 116.08819,15.55997 A 13.059969,13.059969 0 0 1 103.02822,28.61994 13.059969,13.059969 0 0 1 89.968253,15.55997 13.059969,13.059969 0 0 1 103.02822,2.5 13.059969,13.059969 0 0 1 116.08819,15.55997 Z"
       id="path4144-3"
       inkscape:connector-curvature="0" />
    <path
       style="opacity:1;fill:none;fill-opacity:1;stroke:#2c4770;stroke-width:5;stroke-linecap:round;stroke-linejoin:miter;stroke-miterlimit:0;stroke-dasharray:none;stroke-dashoffset:0;stroke-opacity:1"
       d="M 28.619938,51.976866 A 13.059969,13.059969 0 0 1 15.559969,65.036835 13.059969,13.059969 0 0 1 2.5,51.976866 13.059969,13.059969 0 0 1 15.559969,38.9169 13.059969,13.059969 0 0 1 28.619938,51.976866 Z"
       id="path4144-3-6"
       inkscape:connector-curvature="0" />
    <path
       style="opacity:1;fill:none;fill-opacity:1;stroke:#2c4770;stroke-width:5;stroke-linecap:round;stroke-linejoin:miter;stroke-miterlimit:0;stroke-dasharray:none;stroke-dashoffset:0;stroke-opacity:1"
       d="M 79.602244,103.18107 A 13.059969,13.059969 0 0 1 66.542275,116.24104 13.059969,13.059969 0 0 1 53.482307,103.18107 13.059969,13.059969 0 0 1 66.542275,90.121098 13.059969,13.059969 0 0 1 79.602244,103.18107 Z"
       id="path4144-3-7"
       inkscape:connector-curvature="0" />
    <path
       sodipodi:nodetypes="cc"
       inkscape:connector-curvature="0"
       id="path4218"
       d="m 28.110519,51.976864 14.894749,0"
       style="fill:none;fill-rule:evenodd;stroke:#2c4770;stroke-width:8;stroke-linecap:butt;stroke-linejoin:miter;stroke-miterlimit:4;stroke-dasharray:none;stroke-opacity:1" />
    <path
       sodipodi:nodetypes="cc"
       inkscape:connector-curvature="0"
       id="path4218-6"
       d="m 66.542276,76.070453 0,14.894749"
       style="fill:none;fill-rule:evenodd;stroke:#2c4770;stroke-width:8;stroke-linecap:butt;stroke-linejoin:miter;stroke-miterlimit:4;stroke-dasharray:none;stroke-opacity:1" />
    <path
       sodipodi:nodetypes="cc"
       inkscape:connector-curvature="0"
       id="path4218-6-2"
       d="M 94.564678,24.50757 83.288676,34.23923"
       style="fill:none;fill-rule:evenodd;stroke:#2c4770;stroke-width:8;stroke-linecap:butt;stroke-linejoin:miter;stroke-miterlimit:4;stroke-dasharray:none;stroke-opacity:1" />
  </g>
  <g
     id="g4274"
     transform="translate(0,-6.524746)">
    <g
       transform="translate(70.054455,-11.955445)"
       id="g4266">
      <g
         style="font-style:normal;font-variant:normal;font-weight:normal;font-stretch:normal;font-size:54.27944183px;line-height:125%;font-family:'Fira Sans';-inkscape-font-specification:'Fira Sans, Normal';text-align:start;letter-spacing:0px;word-spacing:0px;writing-mode:lr-tb;text-anchor:start;opacity:0.98999999;fill:#2c4770;fill-opacity:1;stroke:none;stroke-width:1px;stroke-linecap:butt;stroke-linejoin:miter;stroke-opacity:1"
         id="text3352">
        <path
           d="m 123.70285,46.716647 c -9.60746,0 -17.53226,6.893489 -17.53226,19.594879 0,12.918507 5.8079,19.703437 16.66379,19.703437 5.04799,0 9.66174,-1.465545 13.40702,-3.799561 l 0,-18.50929 -13.84126,0 0.81419,5.807901 5.26511,0 0,9.173225 c -1.68266,0.922751 -3.58244,1.356986 -5.59078,1.356986 -5.53651,0 -8.35904,-3.636722 -8.35904,-13.678419 0,-9.770299 4.2338,-13.732699 9.55319,-13.732699 3.09392,0 5.21082,0.97703 7.6534,2.98537 l 4.28807,-4.396635 c -3.1482,-2.713972 -6.94777,-4.505194 -12.32143,-4.505194 z"
           style="font-style:normal;font-variant:normal;font-weight:600;font-stretch:normal;font-size:54.27944183px;line-height:125%;font-family:'Fira Sans';-inkscape-font-specification:'Fira Sans, Semi-Bold';text-align:start;writing-mode:lr-tb;text-anchor:start;fill:#2c4770;fill-opacity:1"
           id="path4163" />
        <path
           d="m 157.55287,55.564196 c -3.36533,0 -6.13358,2.388296 -7.49057,6.404974 l -0.70563,-5.590782 -6.67637,0 0,28.768104 7.70768,0 0,-14.818288 c 1.03131,-4.668032 2.65969,-7.273445 6.18786,-7.273445 0.97703,0 1.68266,0.162839 2.55113,0.379956 l 1.30271,-7.436283 c -0.97703,-0.271397 -1.84551,-0.434236 -2.87681,-0.434236 z"
           style="font-style:normal;font-variant:normal;font-weight:600;font-stretch:normal;font-size:54.27944183px;line-height:125%;font-family:'Fira Sans';-inkscape-font-specification:'Fira Sans, Semi-Bold';text-align:start;writing-mode:lr-tb;text-anchor:start;fill:#2c4770;fill-opacity:1"
           id="path4165" />
        <path
           d="m 185.12428,77.167414 0,-11.6158 c 0,-6.513534 -3.4196,-10.041697 -11.39868,-10.041697 -3.25677,0 -7.05633,0.705633 -10.63877,2.116898 l 1.73694,5.156547 c 2.93109,-0.97703 5.69934,-1.519824 7.59912,-1.519824 3.63672,0 5.15655,1.139868 5.15655,4.722311 l 0,1.411266 -3.31105,0 c -8.52187,0 -13.24418,3.419604 -13.24418,9.71602 0,5.210826 3.58244,8.901828 9.33606,8.901828 3.41961,0 6.56781,-1.194148 8.63043,-4.288076 1.19415,2.822531 3.36533,3.853841 6.62209,4.179517 l 1.62839,-5.102267 c -1.41127,-0.488515 -2.1169,-1.302707 -2.1169,-3.636723 z m -12.64711,3.311046 c -2.3883,0 -3.691,-1.465545 -3.691,-4.016679 0,-3.148207 2.06262,-4.668032 6.24213,-4.668032 l 2.55114,0 0,5.482224 c -1.19415,2.062619 -2.87681,3.202487 -5.10227,3.202487 z"
           style="font-style:normal;font-variant:normal;font-weight:600;font-stretch:normal;font-size:54.27944183px;line-height:125%;font-family:'Fira Sans';-inkscape-font-specification:'Fira Sans, Semi-Bold';text-align:start;writing-mode:lr-tb;text-anchor:start;fill:#2c4770;fill-opacity:1"
           id="path4167" />
        <path
           d="m 208.24053,55.509917 c -2.82253,0 -5.91645,1.248427 -8.25047,4.233796 l -0.37996,-3.365325 -6.78493,0 0,40.709581 7.70768,-0.868471 0,-13.298463 c 1.79123,2.116898 4.2338,3.093928 7.11061,3.093928 7.21917,0 11.39868,-6.513533 11.39868,-15.306803 0,-9.281784 -3.20248,-15.198243 -10.80161,-15.198243 z m -2.87681,24.751425 c -1.95406,0 -3.58244,-0.92275 -4.83087,-2.822531 l 0,-12.538551 c 1.30271,-2.171177 3.20249,-3.691002 5.31939,-3.691002 3.31104,0 5.15655,2.334016 5.15655,9.553182 0,6.730651 -2.1169,9.498902 -5.64507,9.498902 z"
           style="font-style:normal;font-variant:normal;font-weight:600;font-stretch:normal;font-size:54.27944183px;line-height:125%;font-family:'Fira Sans';-inkscape-font-specification:'Fira Sans, Semi-Bold';text-align:start;writing-mode:lr-tb;text-anchor:start;fill:#2c4770;fill-opacity:1"
           id="path4169" />
        <path
           d="m 241.22632,55.509917 c -3.4196,0 -6.0793,1.465545 -8.35903,4.125237 l 0,-15.52392 -7.70768,0.814192 0,40.221066 7.70768,0 0,-19.920555 c 1.5741,-2.496854 3.36532,-3.962399 5.5365,-3.962399 1.89978,0 3.14821,0.92275 3.14821,4.233796 l 0,19.649158 7.70768,0 0,-20.951865 c 0,-5.427944 -3.03965,-8.68471 -8.03336,-8.68471 z"
           style="font-style:normal;font-variant:normal;font-weight:600;font-stretch:normal;font-size:54.27944183px;line-height:125%;font-family:'Fira Sans';-inkscape-font-specification:'Fira Sans, Semi-Bold';text-align:start;writing-mode:lr-tb;text-anchor:start;fill:#2c4770;fill-opacity:1"
           id="path4171" />
      </g>
      <g
         style="font-style:normal;font-variant:normal;font-weight:normal;font-stretch:normal;font-size:54.27944183px;line-height:125%;font-family:'Fira Sans';-inkscape-font-specification:'Fira Sans, Normal';text-align:start;letter-spacing:0px;word-spacing:0px;writing-mode:lr-tb;text-anchor:start;fill:#7e95b3;fill-opacity:1;stroke:none;stroke-width:1px;stroke-linecap:butt;stroke-linejoin:miter;stroke-opacity:1"
         id="text3356">
        <path
           d="m 273.07453,64.90026 9.93314,-17.315142 -8.46759,0 -6.18786,12.538551 -5.91646,-12.538551 -8.73899,0 9.82458,17.586539 -10.69305,19.974835 8.52187,0 6.89349,-14.872567 7.00205,14.872567 8.79327,0 -10.96445,-20.246232 z"
           style="font-style:normal;font-variant:normal;font-weight:600;font-stretch:normal;font-size:54.27944183px;line-height:125%;font-family:'Fira Sans';-inkscape-font-specification:'Fira Sans, Semi-Bold';text-align:start;writing-mode:lr-tb;text-anchor:start;fill:#7e95b3;fill-opacity:1"
           id="path4174" />
      </g>
      <g
         style="font-style:normal;font-variant:normal;font-weight:normal;font-stretch:normal;font-size:54.27944183px;line-height:125%;font-family:'Fira Sans';-inkscape-font-specification:'Fira Sans, Normal';text-align:start;letter-spacing:0px;word-spacing:0px;writing-mode:lr-tb;text-anchor:start;fill:#2c4770;fill-opacity:1;stroke:none;stroke-width:1px;stroke-linecap:butt;stroke-linejoin:miter;stroke-opacity:1"
         id="text3356-1">
        <path
           d="m 297.43218,47.585118 -9.82458,0 0,37.561374 10.74733,0 c 9.22751,0 18.45501,-3.799561 18.45501,-18.943525 0,-15.523921 -9.44462,-18.617849 -19.37776,-18.617849 z m 1.24843,5.86218 c 5.42794,0 9.82458,2.008339 9.82458,12.755669 0,10.530212 -4.17952,13.081345 -9.66174,13.081345 l -3.25677,0 0,-25.837014 3.09393,0 z"
           style="font-style:normal;font-variant:normal;font-weight:600;font-stretch:normal;font-size:54.27944183px;line-height:125%;font-family:'Fira Sans';-inkscape-font-specification:'Fira Sans, Semi-Bold';text-align:start;writing-mode:lr-tb;text-anchor:start;fill:#2c4770;fill-opacity:1"
           id="path4177" />
      </g>
    </g>
    <g
       transform="scale(0.99151079,1.0085619)"
       style="font-style:normal;font-variant:normal;font-weight:500;font-stretch:normal;font-size:20.0688324px;line-height:125%;font-family:'Fira Sans';-inkscape-font-specification:'Fira Sans, Medium';text-align:start;letter-spacing:0px;word-spacing:0px;writing-mode:lr-tb;text-anchor:start;fill:#2c4770;fill-opacity:1;stroke:none;stroke-width:1px;stroke-linecap:butt;stroke-linejoin:miter;stroke-opacity:1"
       id="text4256">
      <path
         d="m 184.05555,90.703063 c -3.4117,0 -6.32168,2.528673 -6.32168,7.224779 0,4.756318 2.16743,7.244848 6.02065,7.244848 1.88647,0 3.53211,-0.52179 4.87673,-1.36468 l 0,-6.783265 -4.97707,0 0.28096,1.966745 2.08716,0 0,3.61239 c -0.66227,0.38131 -1.42489,0.54186 -2.20757,0.54186 -2.16744,0 -3.29129,-1.42489 -3.29129,-5.217898 0,-3.732803 1.68578,-5.217896 3.65253,-5.217896 1.18406,0 1.96674,0.361239 2.88991,1.123855 l 1.44495,-1.505163 c -1.16399,-1.003442 -2.48853,-1.625575 -4.45528,-1.625575 z"
         style=""
         id="path4180" />
      <path
         d="m 196.47158,93.974282 c -1.24427,0 -2.26778,0.842891 -2.7695,2.368123 l -0.24083,-2.087159 -2.22764,0 0,10.616414 2.56881,0 0,-5.639344 c 0.40138,-1.806194 1.04358,-2.74943 2.34805,-2.74943 0.36124,0 0.62214,0.04014 0.94324,0.120413 l 0.44151,-2.488535 c -0.34117,-0.100344 -0.68234,-0.140482 -1.06364,-0.140482 z"
         style=""
         id="path4182" />
      <path
         d="m 206.60634,102.06202 0,-4.455279 c 0,-2.348053 -1.24427,-3.652527 -4.07398,-3.652527 -1.20413,0 -2.54874,0.260894 -3.85321,0.762615 l 0.60206,1.745989 c 1.06365,-0.361239 2.08716,-0.561928 2.80964,-0.561928 1.36468,0 1.98681,0.461583 1.98681,1.846333 l 0,0.602065 -1.32454,0 c -3.0906,0 -4.83659,1.244267 -4.83659,3.552182 0,1.92661 1.30448,3.27122 3.43177,3.27122 1.26434,0 2.42833,-0.46158 3.17088,-1.58544 0.42144,1.04358 1.18406,1.44496 2.34805,1.5453 l 0.54186,-1.70585 c -0.52179,-0.20069 -0.80275,-0.50172 -0.80275,-1.36468 z m -4.5757,1.24427 c -0.98337,0 -1.50516,-0.582 -1.50516,-1.60551 0,-1.24426 0.82282,-1.84633 2.48854,-1.84633 l 1.06364,0 0,2.14737 c -0.48165,0.84289 -1.14392,1.30447 -2.04702,1.30447 z"
         style=""
         id="path4184" />
      <path
         d="m 215.19329,93.954214 c -1.08372,0 -2.22764,0.50172 -3.07053,1.605506 l -0.14049,-1.304474 -2.24771,0 0,14.991414 2.56881,-0.28096 0,-4.957 c 0.66228,0.78268 1.58544,1.16399 2.66916,1.16399 2.68922,0 4.19439,-2.38819 4.19439,-5.639341 0,-3.391633 -1.164,-5.579135 -3.97363,-5.579135 z m -0.94324,9.251736 c -0.80275,0 -1.44495,-0.36124 -1.94668,-1.10379 l 0,-4.776383 c 0.50173,-0.822822 1.24427,-1.444956 2.1273,-1.444956 1.32454,0 2.04702,0.983373 2.04702,3.672597 0,2.568812 -0.82282,3.652532 -2.22764,3.652532 z"
         style=""
         id="path4186" />
      <path
         d="m 227.34904,93.954214 c -1.26434,0 -2.28785,0.581996 -3.0906,1.585437 l 0,-5.779823 -2.56881,0.260894 0,14.850938 2.56881,0 0,-7.405401 c 0.62213,-0.963304 1.32454,-1.585438 2.22764,-1.585438 0.78268,0 1.30447,0.381308 1.30447,1.705851 l 0,7.284988 2.56881,0 0,-7.686364 c 0,-2.006884 -1.12385,-3.231082 -3.01032,-3.231082 z"
         style=""
         id="path4188" />
      <path
         d="m 236.68262,93.954214 c -2.46847,0 -4.09405,1.324542 -4.09405,3.0906 0,1.565369 0.96331,2.608948 3.15081,3.211016 1.98681,0.56192 2.40826,0.84289 2.40826,1.72592 0,0.80275 -0.74255,1.2844 -1.88647,1.2844 -1.08372,0 -2.06709,-0.42144 -2.88991,-1.04358 l -1.28441,1.44496 c 0.98338,0.88303 2.40826,1.50516 4.23453,1.50516 2.42832,0 4.47535,-1.16399 4.47535,-3.37156 0,-1.886473 -1.2242,-2.769502 -3.39164,-3.351498 -1.80619,-0.501721 -2.22764,-0.822822 -2.22764,-1.525231 0,-0.642203 0.582,-1.063648 1.60551,-1.063648 0.94323,0 1.78613,0.301032 2.66915,0.862959 l 1.00345,-1.505162 c -1.00345,-0.782685 -2.24771,-1.264336 -3.77294,-1.264336 z"
         style=""
         id="path4190" />
      <path
         d="m 255.33785,104.87166 2.80964,0 -4.29473,-13.867565 -3.27122,0 -4.3148,13.867565 2.74943,0 0.86296,-3.21101 4.59576,0 0.86296,3.21101 z m -4.93693,-5.217898 1.76605,-6.622715 1.78613,6.622715 -3.55218,0 z"
         style=""
         id="path4192" />
      <path
         d="m 263.78934,93.954214 c -3.05047,0 -4.957,2.307915 -4.957,5.699548 0,3.391628 1.90653,5.518928 4.97707,5.518928 1.36468,0 2.46846,-0.44151 3.43177,-1.2242 l -1.14393,-1.62557 c -0.78268,0.50172 -1.34461,0.76261 -2.14736,0.76261 -1.44496,0 -2.38819,-0.9031 -2.38819,-3.471906 0,-2.548741 0.90309,-3.632458 2.38819,-3.632458 0.80275,0 1.44495,0.240826 2.14736,0.762615 l 1.14393,-1.5453 c -1.00345,-0.86296 -2.06709,-1.244267 -3.45184,-1.244267 z"
         style=""
         id="path4194" />
      <path
         d="m 274.35589,93.974282 c -1.24427,0 -2.26778,0.842891 -2.7695,2.368123 l -0.24083,-2.087159 -2.22764,0 0,10.616414 2.56881,0 0,-5.639344 c 0.40138,-1.806194 1.04358,-2.74943 2.34806,-2.74943 0.36124,0 0.62213,0.04014 0.94323,0.120413 l 0.44152,-2.488535 c -0.34117,-0.100344 -0.68234,-0.140482 -1.06365,-0.140482 z"
         style=""
         id="path4196" />
      <path
         d="m 281.17459,93.954214 c -3.15081,0 -5.01721,2.267778 -5.01721,5.599204 0,3.491972 1.8664,5.619272 4.99714,5.619272 3.13074,0 4.99714,-2.26778 4.99714,-5.619272 0,-3.471908 -1.84634,-5.599204 -4.97707,-5.599204 z m 0,1.946676 c 1.48509,0 2.26777,1.123855 2.26777,3.652528 0,2.528672 -0.78268,3.672592 -2.28784,3.672592 -1.50517,0 -2.28785,-1.12385 -2.28785,-3.672592 0,-2.508604 0.80275,-3.652528 2.30792,-3.652528 z"
         style=""
         id="path4198" />
      <path
         d="m 291.9111,93.954214 c -2.46847,0 -4.09404,1.324542 -4.09404,3.0906 0,1.565369 0.9633,2.608948 3.15081,3.211016 1.98681,0.56192 2.40825,0.84289 2.40825,1.72592 0,0.80275 -0.74254,1.2844 -1.88647,1.2844 -1.08371,0 -2.06708,-0.42144 -2.88991,-1.04358 l -1.2844,1.44496 c 0.98337,0.88303 2.40826,1.50516 4.23452,1.50516 2.42833,0 4.47535,-1.16399 4.47535,-3.37156 0,-1.886473 -1.2242,-2.769502 -3.39163,-3.351498 -1.8062,-0.501721 -2.22764,-0.822822 -2.22764,-1.525231 0,-0.642203 0.58199,-1.063648 1.6055,-1.063648 0.94324,0 1.78613,0.301032 2.66916,0.862959 l 1.00344,-1.505162 c -1.00344,-0.782685 -2.24771,-1.264336 -3.77294,-1.264336 z"
         style=""
         id="path4200" />
      <path
         d="m 301.47516,93.954214 c -2.46847,0 -4.09405,1.324542 -4.09405,3.0906 0,1.565369 0.96331,2.608948 3.15081,3.211016 1.98682,0.56192 2.40826,0.84289 2.40826,1.72592 0,0.80275 -0.74255,1.2844 -1.88647,1.2844 -1.08372,0 -2.06709,-0.42144 -2.88991,-1.04358 l -1.28441,1.44496 c 0.98338,0.88303 2.40826,1.50516 4.23453,1.50516 2.42833,0 4.47535,-1.16399 4.47535,-3.37156 0,-1.886473 -1.2242,-2.769502 -3.39164,-3.351498 -1.80619,-0.501721 -2.22764,-0.822822 -2.22764,-1.525231 0,-0.642203 0.582,-1.063648 1.60551,-1.063648 0.94324,0 1.78613,0.301032 2.66916,0.862959 l 1.00344,-1.505162 c -1.00344,-0.782685 -2.24771,-1.264336 -3.77294,-1.264336 z"
         style=""
         id="path4202" />
      <path
         d="m 316.1969,91.004095 -3.4117,0 0,13.867565 3.77294,0 c 3.31136,0 6.74313,-1.38475 6.74313,-7.004024 0,-5.739686 -3.45184,-6.863541 -7.10437,-6.863541 z m 0.46158,1.986815 c 2.04702,0 3.85322,0.702409 3.85322,4.876726 0,4.094044 -1.70585,5.017204 -3.77294,5.017204 l -1.30448,0 0,-9.89393 1.2242,0 z"
         style=""
         id="path4204" />
      <path
         d="m 330.05317,93.954214 c -3.1508,0 -5.01721,2.267778 -5.01721,5.599204 0,3.491972 1.86641,5.619272 4.99714,5.619272 3.13074,0 4.99714,-2.26778 4.99714,-5.619272 0,-3.471908 -1.84633,-5.599204 -4.97707,-5.599204 z m 0,1.946676 c 1.4851,0 2.26778,1.123855 2.26778,3.652528 0,2.528672 -0.78268,3.672592 -2.28785,3.672592 -1.50516,0 -2.28784,-1.12385 -2.28784,-3.672592 0,-2.508604 0.80275,-3.652528 2.30791,-3.652528 z"
         style=""
         id="path4206" />
      <path
         d="m 348.6968,93.954214 c -1.40482,0 -2.36812,0.662271 -3.17088,1.786126 -0.42144,-1.143924 -1.36468,-1.786126 -2.58888,-1.786126 -1.34461,0 -2.30791,0.622133 -3.07053,1.685781 l -0.20069,-1.384749 -2.22764,0 0,10.616414 2.56881,0 0,-7.385332 c 0.582,-0.983373 1.12386,-1.605507 2.02696,-1.605507 0.62213,0 1.16399,0.381308 1.16399,1.705851 l 0,7.284988 2.56881,0 0,-7.385332 c 0.58199,-0.983373 1.12385,-1.605507 2.00688,-1.605507 0.6422,0 1.16399,0.381308 1.16399,1.705851 l 0,7.284988 2.56881,0 0,-7.686364 c 0,-2.006884 -1.12385,-3.231082 -2.80963,-3.231082 z"
         style=""
         id="path4208" />
      <path
         d="m 362.33577,102.06202 0,-4.455279 c 0,-2.348053 -1.24427,-3.652527 -4.07397,-3.652527 -1.20413,0 -2.54874,0.260894 -3.85322,0.762615 l 0.60207,1.745989 c 1.06365,-0.361239 2.08716,-0.561928 2.80963,-0.561928 1.36468,0 1.98682,0.461583 1.98682,1.846333 l 0,0.602065 -1.32454,0 c -3.0906,0 -4.83659,1.244267 -4.83659,3.552182 0,1.92661 1.30447,3.27122 3.43177,3.27122 1.26433,0 2.42833,-0.46158 3.17087,-1.58544 0.42145,1.04358 1.18406,1.44496 2.34806,1.5453 l 0.54185,-1.70585 c -0.52179,-0.20069 -0.80275,-0.50172 -0.80275,-1.36468 z m -4.57569,1.24427 c -0.98338,0 -1.50516,-0.582 -1.50516,-1.60551 0,-1.24426 0.82282,-1.84633 2.48853,-1.84633 l 1.06365,0 0,2.14737 c -0.48165,0.84289 -1.14393,1.30447 -2.04702,1.30447 z"
         style=""
         id="path4210" />
      <path
         d="m 366.72834,88.876799 c -0.94324,0 -1.60551,0.68234 -1.60551,1.565369 0,0.86296 0.66227,1.5453 1.60551,1.5453 0.9633,0 1.62557,-0.68234 1.62557,-1.5453 0,-0.883029 -0.66227,-1.565369 -1.62557,-1.565369 z m 1.30447,5.378447 -2.56881,0 0,10.616414 2.56881,0 0,-10.616414 z"
         style=""
         id="path4212" />
      <path
         d="m 376.76778,93.954214 c -1.34462,0 -2.40826,0.642202 -3.23109,1.70585 l -0.20068,-1.404818 -2.22765,0 0,10.616414 2.56882,0 0,-7.385332 c 0.62213,-0.983373 1.30447,-1.605507 2.22764,-1.605507 0.80275,0 1.30447,0.381308 1.30447,1.705851 l 0,7.284988 2.56881,0 0,-7.686364 c 0,-2.026953 -1.10379,-3.231082 -3.01032,-3.231082 z"
         style=""
         id="path4214" />
      <path
         d="m 386.10134,93.954214 c -2.46847,0 -4.09404,1.324542 -4.09404,3.0906 0,1.565369 0.9633,2.608948 3.1508,3.211016 1.98682,0.56192 2.40826,0.84289 2.40826,1.72592 0,0.80275 -0.74254,1.2844 -1.88647,1.2844 -1.08371,0 -2.06709,-0.42144 -2.88991,-1.04358 l -1.2844,1.44496 c 0.98337,0.88303 2.40826,1.50516 4.23452,1.50516 2.42833,0 4.47535,-1.16399 4.47535,-3.37156 0,-1.886473 -1.2242,-2.769502 -3.39163,-3.351498 -1.8062,-0.501721 -2.22764,-0.822822 -2.22764,-1.525231 0,-0.642203 0.58199,-1.063648 1.6055,-1.063648 0.94324,0 1.78613,0.301032 2.66916,0.862959 l 1.00344,-1.505162 c -1.00344,-0.782685 -2.24771,-1.264336 -3.77294,-1.264336 z"
         style=""
         id="path4216" />
    </g>
  </g>
</svg>
